# xmcd
#
# Track frame offsets:
#	150
#	16937
#	38370
#	52684
#	64668
#	79678
#	98043
#	115183
#	132734
#	147066
#	163070
#	181966
#	198578
#	227923
#	245925
#	257551
#
# Disc length: 3712 seconds
#
# Revision: 2
# Processed by: cddbd v1.5.1PL2 Copyright (c) Steve Scherf et al.
# Submitted via: audiograbber 1.83.01
#
DISCID=d40e7e10
DTITLE=Master Tone - Christmas Country Line Dance - Master Tone, MDT1118
DYEAR=1998
DGENRE=Christmas
TTITLE0=Shiny Balls
TTITLE1=I Want A Guitar For Christmas
TTITLE2=Christmas Kickin'
TTITLE3=Mister Line Dancer
TTITLE4=Burning The Floor
TTITLE5=Alligator Love
TTITLE6=We Wish You A Merry Line Dance
TTITLE7=Santa's Line Dance Party
TTITLE8=Plain Jane
TTITLE9=Go Johnny
TTITLE10=Sleigh bells And Banjos
TTITLE11=Turkey Step
TTITLE12=Twas The Night Before Christmas
TTITLE13=Reckless Heart
TTITLE14=I Ain't Gonna Die With A Hole In My Heart
TTITLE15=My Present
EXTD=
EXTT0=
EXTT1=
EXTT2=
EXTT3=
EXTT4=
EXTT5=
EXTT6=
EXTT7=
EXTT8=
EXTT9=
EXTT10=
EXTT11=
EXTT12=
EXTT13=
EXTT14=
EXTT15=
PLAYORDER=
